<svg width="41" height="38" viewBox="0 0 41 38" fill="none" xmlns="http://www.w3.org/2000/svg">
<path fill-rule="evenodd" clip-rule="evenodd" d="M17.3017 25.3987L16.6983 24.6012L25.1458 18.2097L16.7166 12.4119L17.2833 11.588L26.8542 18.1711L17.3017 25.3987Z" fill="#DB58EC" fill-opacity="0.5"/>
<path fill-rule="evenodd" clip-rule="evenodd" d="M20.5002 0.999756C9.65778 0.999756 1.00024 9.12883 1.00024 18.9998C1.00024 28.8707 9.65778 36.9998 20.5002 36.9998C31.3427 36.9998 40.0002 28.8707 40.0002 18.9998C40.0002 9.12883 31.3427 0.999756 20.5002 0.999756ZM20.5002 -0.000244141C9.17841 -0.000244141 0.000244141 8.50635 0.000244141 18.9998C0.000244141 29.4932 9.17841 37.9998 20.5002 37.9998C31.8221 37.9998 41.0002 29.4932 41.0002 18.9998C41.0002 8.50635 31.8221 -0.000244141 20.5002 -0.000244141Z" fill="url(#paint0_linear_26_403)"/>
<defs>
<linearGradient id="paint0_linear_26_403" x1="41.0002" y1="18.9998" x2="0.000244141" y2="18.9998" gradientUnits="userSpaceOnUse">
<stop stop-color="#A658B3"/>
<stop offset="0.63022" stop-color="#A457B1" stop-opacity="0"/>
</linearGradient>
</defs>
</svg>
