<svg width="122" height="34" viewBox="0 0 122 34" fill="none" xmlns="http://www.w3.org/2000/svg">
<path d="M12.7729 13.7248L9.78632 12.763L5.65027 13.729L2.54824 14.6951L0.480202 16.6271L11.8544 0.204858L11.0205 6.96694L12.7729 13.7248Z" fill="#8F20A1"/>
<path d="M12.2668 19.2747L15.4601 20.0032L19.566 18.709L22.612 17.4962L24.4654 15.3967L15.0705 32.7531L14.9937 25.9098L12.2668 19.2747Z" fill="#8F20A1"/>
<path d="M21.0302 14.4902L15.8601 7.7281L14.0365 5.70475L14.0365 3.77272L13.1581 5.80859e-06L24.1323 14.4902L13.7921 18.3543L18.0759 10.6261L21.0302 14.4902Z" fill="#8F20A1"/>
<path d="M4.07854 19.3931L9.77837 26.1733L11.7645 28.1954L11.8946 30.1685L13.0397 34L0.931852 19.4683L11.1606 15.2713L7.33558 23.2675L4.07854 19.3931Z" fill="#8F20A1"/>
<path d="M42.632 27V7.4H45.628L57.92 22.492H56.436V7.4H60.048V27H57.052L44.76 11.908H46.244V27H42.632ZM64.964 27V12.048H68.464V27H64.964ZM66.728 9.584C66.0746 9.584 65.5333 9.37867 65.104 8.968C64.6933 8.55733 64.488 8.06267 64.488 7.484C64.488 6.88667 64.6933 6.392 65.104 6C65.5333 5.58933 66.0746 5.384 66.728 5.384C67.3813 5.384 67.9133 5.58 68.324 5.972C68.7533 6.34533 68.968 6.82133 68.968 7.4C68.968 8.016 68.7626 8.53867 68.352 8.968C67.9413 9.37867 67.4 9.584 66.728 9.584ZM73.5337 27V11.208C73.5337 9.64 73.9911 8.38933 74.9057 7.456C75.8391 6.504 77.1644 6.028 78.8817 6.028C79.4977 6.028 80.0764 6.09333 80.6177 6.224C81.1777 6.35467 81.6444 6.56 82.0177 6.84L81.0657 9.472C80.8044 9.26667 80.5057 9.11733 80.1697 9.024C79.8337 8.912 79.4884 8.856 79.1337 8.856C78.4057 8.856 77.8551 9.06133 77.4817 9.472C77.1084 9.864 76.9217 10.4613 76.9217 11.264V12.944L77.0337 14.512V27H73.5337ZM71.0697 14.96V12.16H81.0377V14.96H71.0697ZM89.0217 27.196C87.379 27.196 86.1097 26.776 85.2137 25.936C84.3177 25.0773 83.8697 23.8173 83.8697 22.156V8.744H87.3697V22.072C87.3697 22.7813 87.547 23.332 87.9017 23.724C88.275 24.116 88.7883 24.312 89.4417 24.312C90.2257 24.312 90.879 24.1067 91.4017 23.696L92.3817 26.188C91.971 26.524 91.467 26.776 90.8697 26.944C90.2723 27.112 89.6563 27.196 89.0217 27.196ZM81.4057 14.96V12.16H91.3737V14.96H81.4057ZM101.797 27.196C100.135 27.196 98.6793 26.8693 97.4287 26.216C96.1967 25.544 95.2353 24.6293 94.5447 23.472C93.8727 22.3147 93.5367 20.9987 93.5367 19.524C93.5367 18.0307 93.8633 16.7147 94.5167 15.576C95.1887 14.4187 96.1033 13.5133 97.2607 12.86C98.4367 12.2067 99.7713 11.88 101.265 11.88C102.721 11.88 104.018 12.1973 105.157 12.832C106.295 13.4667 107.191 14.3627 107.845 15.52C108.498 16.6773 108.825 18.04 108.825 19.608C108.825 19.7573 108.815 19.9253 108.797 20.112C108.797 20.2987 108.787 20.476 108.769 20.644H96.3087V18.32H106.921L105.549 19.048C105.567 18.1893 105.39 17.4333 105.017 16.78C104.643 16.1267 104.13 15.6133 103.477 15.24C102.842 14.8667 102.105 14.68 101.265 14.68C100.406 14.68 99.65 14.8667 98.9967 15.24C98.362 15.6133 97.858 16.136 97.4847 16.808C97.13 17.4613 96.9527 18.236 96.9527 19.132V19.692C96.9527 20.588 97.158 21.3813 97.5687 22.072C97.9793 22.7627 98.558 23.2947 99.3047 23.668C100.051 24.0413 100.91 24.228 101.881 24.228C102.721 24.228 103.477 24.0973 104.149 23.836C104.821 23.5747 105.418 23.164 105.941 22.604L107.817 24.76C107.145 25.544 106.295 26.1507 105.269 26.58C104.261 26.9907 103.103 27.196 101.797 27.196ZM112.187 27V12.048H115.519V16.164L115.127 14.96C115.575 13.952 116.275 13.1867 117.227 12.664C118.197 12.1413 119.401 11.88 120.839 11.88V15.212C120.689 15.1747 120.549 15.156 120.419 15.156C120.288 15.1373 120.157 15.128 120.027 15.128C118.701 15.128 117.647 15.52 116.863 16.304C116.079 17.0693 115.687 18.2173 115.687 19.748V27H112.187Z" fill="white"/>
</svg>
